PathFileType	4	(X/Y/Z)	Patient4_TMGait_0pt7_01_right_41.trc.trc
DataRate	CameraRate	NumFrames	NumMarkers	Units	OrigDataRate	OrigDataStartFrame	OrigNumFrames
85.365853658537	85.365853658537	4	33	mm	85.365853658537	18	       141
Frame#	Time	Sacral			L.Shoulder			Chest			R.Shoulder			Neck			R.ASIS			L.ASIS			R.Thigh.Superior			R.Thigh.Lateral			R.Thigh.Inferior			R.Patella			L.Thigh.Superior			L.Thigh.Lateral			L.Thigh.Inferior			L.Patella			L.Shank.Superior			L.Shank.Lateral			L.Shank.Inferior			R.Shank.Superior			R.Shank.Lateral			R.Shank.Inferior			R.Heel			R.Midfoot.Superior			R.Midfoot.Lateral			R.Toe			L.Heel			L.Midfoot.Lateral			L.Midfoot.Superior			L.Toe			L.Elbow			L.Wrist			R.Elbow			R.Wrist			
		X1	Y1	Z1	X2	Y2	Z2	X3	Y3	Z3	X4	Y4	Z4	X5	Y5	Z5	X6	Y6	Z6	X7	Y7	Z7	X8	Y8	Z8	X9	Y9	Z9	X10	Y10	Z10	X11	Y11	Z11	X12	Y12	Z12	X13	Y13	Z13	X14	Y14	Z14	X15	Y15	Z15	X16	Y16	Z16	X17	Y17	Z17	X18	Y18	Z18	X19	Y19	Z19	X20	Y20	Z20	X21	Y21	Z21	X22	Y22	Z22	X23	Y23	Z23	X24	Y24	Z24	X25	Y25	Z25	X26	Y26	Z26	X27	Y27	Z27	X28	Y28	Z28	X29	Y29	Z29	X30	Y30	Z30	X31	Y31	Z31	X32	Y32	Z32	X33	Y33	Z33	

18	47.089142857143	836.373450633244	1005.230948735006	400.707958566997	1051.459374719693	1426.331590978466	231.960432409600	1134.579983651169	1350.438334616710	402.386571867345	1039.914505659008	1433.101808897555	566.169464706232	1042.985144360101	1488.320956660870	384.813428208287	1049.993131942493	940.492844235677	540.791494108577	1062.112424697607	957.372275080779	264.062921737648	1129.277074096634	774.354577444522	518.303247945264	1088.053554852377	649.806905139676	590.321297073541	1184.539633334490	618.775690983299	517.021456963970	1221.532572646743	538.061492233555	535.929733420315	1065.003280575728	732.775757954303	294.346227944047	952.237122494382	637.410687606848	226.155401794836	1009.633047436733	544.279892606742	292.986764771495	994.772574207644	478.914965573697	302.084976856366	964.149350621180	412.504687043683	293.066073663914	866.862659568759	305.177836274290	240.383479635655	905.701716726381	191.024255745083	315.167031991094	1210.743168829203	448.844355923750	544.044625803986	1161.552280718096	330.827681950503	602.794620942211	1240.139690726054	250.262792320587	555.936854659116	1164.324440436329	55.180946561892	521.605447497978	1318.224746907368	143.530177973434	571.789592217058	1245.059385464131	59.293121003341	597.682988703697	1443.588180773973	117.156533268621	602.214014181371	768.812629097299	39.877017139425	358.695353582045	842.751210543940	35.358288998121	278.536330833030	926.358044804602	95.608543347736	305.125443538267	1054.819438259071	41.391965532974	277.603022994535	1093.885980732768	1099.504616416708	79.340207657182	1343.280895749369	1064.996852479880	122.896483939603	905.932226139476	1117.297595917954	688.120924014903	882.614417942698	858.588926351148	714.573250996878	
19	47.100857142857	838.117822952100	1002.716215635434	403.163232211214	1050.287906893503	1424.508614665230	233.629214452823	1134.192260760888	1349.464811172280	403.994854454040	1039.302733492918	1432.059799117172	567.694669717568	1041.883113018980	1486.640980715733	386.179299831245	1052.316126213283	937.985117467577	542.469058063000	1063.511719529910	956.567893569596	265.449656990990	1129.804250918298	769.862628117264	520.282654066478	1086.513971649058	645.200382542655	591.111290901807	1183.088473409080	613.785110671110	518.116687443200	1218.841893419747	533.836294864658	535.842527972416	1063.681317932489	731.012199017418	294.486167044832	948.905073680302	637.183807544000	226.676272234596	1005.359012944102	543.178121234060	292.872801086737	989.788086933681	477.838729502440	301.834155193203	958.438921364694	411.884246690553	292.974366175526	859.956649758371	305.491016856341	240.539218381112	898.231264674862	190.824980764737	314.965758828176	1209.361750585830	444.831888135663	544.027700907982	1161.487102694782	326.061355253740	602.095632675779	1241.471111547259	246.725661665121	555.349478893232	1168.399570340592	51.275502556001	520.028882299677	1321.127463864170	140.584720590789	570.970240103949	1248.535397273779	56.155010854840	596.607647753433	1446.549973012815	115.332624989602	602.418535369206	760.589706489079	40.018404314432	358.641064450043	834.504566968262	35.384966134023	278.523302410746	918.164379866988	95.579875358332	305.001896827289	1046.558754218507	41.184317303955	277.522259788764	1097.971663227731	1099.203794277704	80.532693234915	1347.763839967445	1073.972518384129	126.419223126056	899.119554488909	1120.259657136799	690.261934749113	873.221320484595	861.461745182039	715.059950743264	
20	47.112571428571	839.993289888195	1000.055569026125	405.970379849549	1048.904188148755	1422.566338600769	235.434954269864	1133.792039807147	1348.492544259809	405.700686184495	1038.684295109322	1430.933025775162	569.402984115398	1040.648626701965	1484.855617142954	387.699211126098	1054.951698401012	935.335261028185	544.172528928735	1064.928785795825	955.592075740438	266.963225819963	1130.999604373122	765.408975359380	522.138115418678	1085.645258698150	640.667204179827	591.731969824673	1182.192652633843	608.881679413101	518.910006328115	1216.607810330951	529.357681912543	535.409173138437	1062.669117378342	729.148280194171	294.717304224453	945.991610189510	636.823125266355	227.389579180271	1001.592205453843	541.971542477835	292.957711346210	985.323748520717	476.581206361514	301.834073942774	953.193068062367	411.080016747769	293.082539804534	853.403033553330	305.764176925517	240.863668110889	890.921982064524	190.534406755993	314.878277405058	1207.896790421892	440.437640075067	543.677476191044	1160.629572183356	321.341375172511	601.227598438802	1241.192277670527	242.675378280159	554.423066289549	1169.110435901852	47.950507381152	518.412118827825	1321.523437930704	136.565658198007	569.675843396334	1248.771336288135	52.859699869717	595.390532734140	1446.760562719128	111.181812037935	601.961758007718	752.368864502773	40.136550758719	358.578049515382	826.272714049811	35.409418955019	278.510303339746	909.982828144189	95.555817877517	304.912526717625	1038.318485246031	40.978596647200	277.427471738444	1101.612394389000	1098.730559609244	81.963471886711	1351.467275213989	1082.052669085419	129.997789383022	892.915279216039	1122.908196793289	692.303190647607	864.876958915169	863.936081194007	715.559737524340	
21	47.124285714286	841.952397835157	997.334579065716	409.083829759802	1047.368742931444	1420.570841067568	237.396984455585	1133.411511907791	1347.542210297339	407.517821618118	1038.103913466076	1429.735131987813	571.318789456368	1039.340791652611	1483.017664673654	389.411858101602	1057.839261709426	932.625597988810	545.884446875837	1066.337910505424	954.450171172956	268.630250589064	1132.844161873545	761.119794440965	523.806255917023	1085.494218719534	636.363014875403	592.204557355234	1181.863928246449	604.234392583825	519.366141603338	1214.889956054274	524.805504481863	534.630276167203	1061.982963439477	727.212854605645	295.101215804798	943.553676019607	636.323335880980	228.323012232713	998.382734476081	540.659476705232	293.288420162157	981.436596365996	475.134501670662	302.123495660367	948.463559446842	410.082926543074	293.421564236403	847.251510186690	306.001944457224	241.368449154244	883.796748519914	190.158884354825	314.915082111813	1206.480092308985	435.838736971977	543.030416285639	1159.229246243137	316.785338676630	600.289741196746	1239.612056783673	238.260504160630	553.225788838877	1166.878986722864	45.212674044605	516.890102256625	1319.811952676964	131.672998888073	567.982075398759	1246.239268923019	49.508493440153	594.140831865701	1444.688311135308	105.025502015961	600.859878842535	744.147975670375	40.256868464697	358.498839087907	818.060516324922	35.437071186785	278.493740130430	901.830615554052	95.538940122200	304.853444130666	1030.109653263252	40.772527071722	277.319456671379	1104.728437573340	1098.102377408548	83.638163014518	1354.390584153638	1089.199397117391	133.597529642922	887.447022169176	1125.128530844169	694.238811425178	857.633436879568	865.936354231260	716.092481873344	
